# xmcd
#
# Track frame offsets:
#	150
#	18055
#	29982
#	42597
#	57920
#	74415
#	87562
#	104837
#	115420
#	127817
#	141512
#	156012
#	175312
#	194775
#	206250
#	222937
#
# Disc length: 3174 seconds
#
# Revision: 1
# Processed by: cddbd v1.5.2PL0 Copyright (c) Steve Scherf et al.
# Submitted via: dBpowerAMP V4.0
#
DISCID=fc0c6410
DTITLE=Riders in the Sky - Public Cowboy #1
DYEAR=2007
DGENRE=Country
TTITLE0=Back in the Saddle Again
TTITLE1=Sioux City Sue
TTITLE2=Mexicali Rose
TTITLE3=You are My Sunshine
TTITLE4=have i told you lately that i love you?
TTITLE5=Can't Shake the Sands of Texas from My Shoes
TTITLE6=that silver headed daddy of mine
TTITLE7=be honest with me
TTITLE8=blue canadian rockies
TTITLE9=lonely river
TTITLE10=South of the Border
TTITLE11=ridin' down the canyon
TTITLE12=take me back to my boots and saddle
TTITLE13=the last roundup
TTITLE14=riders in the sky (a cowboy legend)
TTITLE15=Tumbling Tumbleweeds
EXTD=
EXTT0=
EXTT1=
EXTT2=
EXTT3=
EXTT4=
EXTT5=
EXTT6=
EXTT7=
EXTT8=
EXTT9=
EXTT10=
EXTT11=
EXTT12=
EXTT13=
EXTT14=
EXTT15=
PLAYORDER=
